<svg version="1.1" id="Layer_1" xmlns="http://www.w3.org/2000/svg" xmlns:xlink="http://www.w3.org/1999/xlink" x="0px"
	y="0px" width="100%" viewBox="0 0 211 256" enable-background="new 0 0 211 256" xml:space="preserve">
	<path fill="#030303" opacity="1.000000" stroke="none" d="
M106.000000,1.000000
	C111.688042,1.000000 117.376083,1.000000 123.698196,1.353796
	C143.194031,4.467104 156.731918,15.084880 165.473114,31.398821
	C168.051453,36.210842 170.824234,42.980011 167.253708,48.533916
	C164.106491,53.429344 159.814590,58.170975 154.929855,61.222221
	C148.601715,65.175087 141.145721,67.299133 134.268997,70.417198
	C132.943024,71.018425 132.048935,72.572144 130.722702,73.923836
	C140.119812,78.218231 148.581650,82.085205 156.524536,85.715027
	C157.102692,82.258430 157.030167,78.812935 158.304047,75.970947
	C160.292297,71.535278 165.732880,69.632629 170.672256,70.770782
	C176.205612,72.045799 179.901062,76.465660 180.333908,82.042381
	C180.482635,83.958504 181.088928,85.839104 181.486191,87.735939
	C181.979034,87.663521 182.471878,87.591103 182.964722,87.518684
	C183.336227,85.924591 183.290970,84.034782 184.167694,82.799164
	C185.889587,80.372421 187.716904,77.355774 190.226944,76.283539
	C196.549866,73.582565 204.975616,77.681885 207.731949,84.013412
	C210.194061,89.669136 208.323486,94.410194 202.732361,97.159912
	C200.861221,98.080139 199.196671,99.420418 197.437683,100.568687
	C197.478867,101.175339 197.520065,101.781990 197.561264,102.388641
	C204.044403,102.181534 209.199493,104.156433 212.000000,110.000000
	C212.000000,112.370560 212.000000,114.741112 211.693604,117.715012
	C206.068619,129.905441 198.363342,131.035828 190.007675,121.575012
	C189.195694,120.655640 187.027176,119.654045 186.371185,120.072983
	C178.875595,124.859856 172.719391,121.181061 166.438339,117.415657
	C165.354172,116.765717 163.298218,116.161804 162.595596,116.705490
	C157.964645,120.288811 153.257446,120.091545 149.533646,117.945251
	C150.916992,132.880203 152.331909,148.156006 153.692154,162.841385
	C156.638351,165.153152 160.828918,167.190323 163.061005,170.534622
	C165.427856,174.080841 165.934311,178.868759 166.874817,181.896194
	C169.109604,180.458496 171.706940,177.434311 174.013550,177.641785
	C176.983200,177.908920 180.789230,180.109238 182.343658,182.639023
	C186.067200,188.698944 179.692032,190.534424 175.032913,193.927460
	C180.773224,194.513474 185.268768,195.947723 184.634750,201.178375
	C184.271866,204.172287 182.105713,207.917068 179.601685,209.470520
	C175.058228,212.289200 172.157257,208.199280 169.573303,204.634842
	C165.088547,207.523941 161.229141,206.095581 157.226959,203.854401
	C155.870361,203.094742 153.656204,203.150452 152.079376,203.633972
	C147.299835,205.099640 142.511581,202.176498 141.937195,197.024551
	C141.766083,195.489761 141.910782,193.919785 141.910782,193.650284
	C130.858383,205.691818 119.090652,218.061157 107.867577,230.906357
	C100.926003,238.851212 91.226944,245.082962 90.000000,257.000000
	C88.611107,257.000000 87.222221,257.000000 85.307869,256.670349
	C80.740982,252.435776 78.943443,247.466827 80.554436,242.270065
	C82.597664,235.678925 85.253510,229.170792 88.511742,223.091263
	C92.273582,216.072037 97.182831,209.677582 101.208427,202.786667
	C104.228752,197.616547 106.101433,191.962051 105.707695,185.564804
	C98.302559,186.022308 92.953285,188.971329 89.769737,195.485092
	C90.799004,196.620804 91.939926,197.623581 92.767990,198.839432
	C95.754570,203.224609 93.698082,211.523239 89.781509,210.665497
	C82.801094,209.136749 78.679512,214.335846 72.959824,214.945480
	C72.629654,214.980667 72.284233,215.022522 71.962723,214.965866
	C68.924713,214.430649 67.056740,215.634567 64.801003,217.890121
	C63.208477,219.482544 59.193874,219.874390 56.767048,219.136536
	C52.697212,217.899124 51.353115,213.987381 51.524746,209.867722
	C51.667755,206.434906 54.351738,205.758072 57.097549,205.259857
	C58.238636,205.052811 59.348122,204.671616 60.957016,204.239258
	C52.114868,198.179245 50.299374,194.957031 53.460892,190.901672
	C54.579086,189.467346 56.817570,187.781097 58.300003,187.985336
	C61.600857,188.440048 64.747452,190.014587 67.861504,191.099487
	C69.110870,183.554825 71.553810,181.802734 79.757545,182.915482
	C80.816521,183.059097 82.205132,182.550903 83.094040,181.882889
	C89.104126,177.366394 95.020805,172.725586 101.853149,167.439987
	C90.825829,150.968552 76.916512,134.448761 69.959587,112.736412
	C66.715385,117.325417 63.953083,120.786026 61.676575,124.541138
	C56.037544,133.842682 49.737156,136.066315 39.379364,132.304184
	C35.609833,130.935013 32.721149,131.370453 31.664610,136.253769
	C30.583847,141.249039 26.761560,143.595795 21.833916,144.034698
	C15.256119,144.620560 8.962216,139.947128 6.934724,133.122086
	C5.446966,128.113907 6.660332,125.333778 11.386708,122.955963
	C13.958846,121.661926 16.539051,120.383934 20.312073,118.501892
	C11.923220,116.460594 4.577587,115.445198 1.000000,108.000000
	C1.000000,105.958336 1.000000,103.916664 1.349510,101.403389
	C9.289911,88.312790 17.944450,92.859375 26.995504,100.005264
	C26.756634,98.039505 26.331110,96.898407 25.730333,95.858574
	C22.646860,90.521690 23.092926,86.433861 27.255976,82.436569
	C32.131344,77.755325 40.022915,76.917572 45.200783,80.531586
	C49.554535,83.570389 50.323708,87.144287 47.989929,93.251732
	C47.578678,94.327972 46.879318,95.579391 47.131073,96.534218
	C47.335583,97.309853 48.929653,98.424454 49.627079,98.252365
	C54.861809,96.960709 61.912979,85.569290 61.945183,80.048317
	C62.006966,69.458023 61.095657,58.529404 63.349045,48.352486
	C68.328201,25.865202 80.885483,9.045730 104.286530,2.426886
	C104.939941,2.242071 105.432457,1.488409 106.000000,1.000000
M140.988022,113.501595
	C140.864029,113.223984 140.740036,112.946365 140.616043,112.668747
	C140.491409,112.759239 140.252853,112.920784 140.258591,112.929993
	C140.488068,113.297989 140.739685,113.652176 140.987091,114.684067
	C141.314987,115.462723 141.642899,116.241379 141.971741,117.811180
	C142.633774,120.264252 143.295792,122.717316 143.957825,125.170387
	C144.473129,124.979698 144.988434,124.789017 145.503754,124.598328
	C144.346680,122.054970 143.189621,119.511620 142.020447,116.299118
	C141.684280,115.528732 141.348114,114.758347 140.988022,113.501595
M146.471222,182.062637
	C145.636795,183.942749 144.802383,185.822845 144.038986,187.542923
	C147.543884,188.248215 150.675781,188.878448 154.252930,189.598282
	C152.853928,185.962540 151.588821,182.674744 150.164200,178.972412
	C149.097244,179.743042 147.958344,180.565643 146.471222,182.062637
M121.419991,5.011341
	C123.599174,5.369322 125.778366,5.727304 127.957550,6.085285
	C128.006897,5.616913 128.056229,5.148541 128.105576,4.680169
	C124.509766,4.420170 120.913956,4.160171 117.318153,3.900171
	C117.296936,4.267145 117.275711,4.634118 117.254494,5.001091
	C118.373001,5.001091 119.491516,5.001091 121.419991,5.011341
M138.167862,108.059906
	C138.472336,108.869164 138.776810,109.678413 139.081268,110.487671
	C139.401520,110.326439 139.721756,110.165215 140.041992,110.003983
	C139.555679,109.220078 139.069366,108.436180 138.167862,108.059906
M134.172989,8.448753
	C134.606476,8.401184 135.039963,8.353615 135.473450,8.306046
	C135.293427,7.933450 135.113388,7.560854 134.933365,7.188259
	C134.549286,7.477108 134.165207,7.765956 134.172989,8.448753
M137.753647,104.830086
	C137.585052,104.886543 137.416443,104.942993 137.247849,104.999451
	C137.417374,105.054909 137.586914,105.110367 137.753647,104.830086
M145.522339,127.616096
	C145.467789,127.834084 145.413239,128.052078 145.358688,128.270065
	C145.492767,128.130524 145.626831,127.990967 145.522339,127.616096
z" />
</svg>